<svg xmlns="http://www.w3.org/2000/svg" fill="none" viewBox="0 0 101.01599999999999 103.31491712707181" style="max-height: 500px" width="101.01599999999999" height="103.31491712707181">
<path fill="white" d="M85.3026 85.2802C94.732 75.9126 100.018 63.2241 100 50.002C99.9899 49.186 99.6556 48.4065 99.0688 47.8331C98.482 47.2591 97.6907 46.9378 96.8661 46.9378C96.041 46.9378 95.2498 47.2591 94.663 47.8331C94.0762 48.4065 93.7418 49.186 93.7318 50.002C93.745 61.5893 89.1101 72.7085 80.8456 80.9164C76.8336 84.9927 72.0372 88.2326 66.7391 90.4451C61.4414 92.657 55.7495 93.7968 49.9995 93.7968C44.2495 93.7968 38.5576 92.657 33.2598 90.4451C27.9621 88.2326 23.1656 84.9927 19.1535 80.9164C10.9 72.7003 6.2674 61.5856 6.2674 50.0002C6.2674 38.4145 10.9 27.2999 19.1535 19.0836C23.1423 15.0386 27.9027 11.8175 33.1588 9.60689C38.4149 7.39636 44.0622 6.24035 49.7732 6.20595C50.9925 6.24375 52.1487 6.75155 52.9953 7.621C53.8419 8.4904 54.3116 9.65274 54.3043 10.8601C54.2974 12.0674 53.814 13.2242 52.9573 14.0839C52.1007 14.9435 50.9385 15.4379 49.7187 15.4617C49.6058 15.4619 49.4928 15.4681 49.3807 15.4803C40.6921 15.7572 32.4479 19.3475 26.3721 25.5005C19.9556 31.8928 16.3544 40.5374 16.3544 49.5476C16.3544 58.558 19.9556 67.2023 26.3721 73.5947C29.5068 76.7726 33.252 79.2978 37.3875 81.0218C41.5229 82.7459 45.9651 83.634 50.4523 83.634C54.9395 83.634 59.3819 82.7459 63.5174 81.0218C67.6524 79.2978 71.3978 76.7726 74.5326 73.5947C80.959 67.2091 84.5616 58.5603 84.5488 49.5476C84.5621 48.1282 84.2909 46.7196 83.7512 45.4043C83.211 44.0892 82.4134 42.8927 81.4035 41.8842C80.3937 40.8757 79.1922 40.0752 77.8681 39.529C76.544 38.9826 75.1239 38.7014 73.6892 38.7014C72.2544 38.7014 70.8343 38.9826 69.5102 39.529C68.1862 40.0752 66.9847 40.8757 65.9748 41.8842C64.965 42.8927 64.1673 44.0892 63.6272 45.4043C63.0875 46.7196 62.8163 48.1282 62.8295 49.5476C62.8295 49.6381 62.8355 49.7232 62.8428 49.8101C62.8355 49.897 62.8295 49.9839 62.8295 50.0726C62.8501 52.5476 62.127 54.9728 60.7522 57.0408C59.3778 59.1084 57.4134 60.7252 55.1088 61.6866C52.8041 62.6475 50.2625 62.9096 47.8074 62.4393C45.3519 61.9686 43.093 60.7872 41.3173 59.0441C39.5416 57.3011 38.3291 55.0755 37.8336 52.6494C37.3382 50.2234 37.5821 47.7063 38.5344 45.4178C39.4867 43.129 41.1045 41.1719 43.1826 39.7946C45.2607 38.4174 47.7054 37.6821 50.2063 37.682C50.6211 37.687 51.0327 37.6104 51.4174 37.4568C51.802 37.3031 52.1519 37.0754 52.4469 36.7869C52.7419 36.4984 52.9765 36.1549 53.1361 35.7761C53.2962 35.3973 53.3785 34.9909 53.3785 34.5804C53.3785 34.1699 53.2962 33.7635 53.1361 33.3847C52.9765 33.0059 52.7419 32.6623 52.4469 32.3738C52.1519 32.0853 51.802 31.8577 51.4174 31.704C51.0327 31.5504 50.6211 31.4738 50.2063 31.4788C46.4948 31.4991 42.8723 32.607 39.7962 34.6625C36.7201 36.7181 34.3281 39.6293 32.922 43.0287C31.5159 46.4281 31.1587 50.1636 31.8954 53.7638C32.6322 57.364 34.4299 60.6673 37.0617 63.2576C39.6935 65.8476 43.0416 67.6083 46.6837 68.3175C50.3252 69.0264 54.098 68.652 57.525 67.2417C60.952 65.8313 63.8805 63.4482 65.9405 60.3925C68.0005 57.3368 69.0995 53.7457 69.0995 50.0726C69.0995 49.9821 69.0936 49.897 69.0863 49.8101C69.0936 49.7232 69.0995 49.6363 69.0995 49.5476C69.0872 48.9433 69.1969 48.3427 69.4224 47.7805C69.6474 47.2188 69.9841 46.7069 70.4112 46.2756C70.8389 45.8438 71.3493 45.5007 71.9123 45.2667C72.4753 45.0327 73.0804 44.9121 73.691 44.9121C74.3016 44.9121 74.9067 45.0327 75.4697 45.2667C76.0327 45.5007 76.5431 45.8438 76.9708 46.2756C77.3979 46.7069 77.7346 47.2188 77.9596 47.7805C78.1851 48.3427 78.2948 48.9433 78.2825 49.5476C78.2907 56.9263 75.3393 64.0063 70.0765 69.2328C67.5248 71.8272 64.4737 73.8889 61.1034 75.297C57.7331 76.7052 54.1117 77.4303 50.4533 77.4303C46.7953 77.4303 43.174 76.7052 39.8036 75.297C36.4333 73.8889 33.3822 71.8272 30.8305 69.2328C25.5747 64.0018 22.6246 56.9245 22.6246 49.5476C22.6246 42.1707 25.5747 35.0936 30.8305 29.8624C33.3842 27.2713 36.4354 25.2114 39.8049 23.8037C43.1743 22.396 46.7939 21.6688 50.4514 21.6649C50.7327 21.6642 51.0126 21.6258 51.2838 21.5509C53.9521 21.1459 56.3747 19.7803 58.088 17.716C59.8013 15.6518 60.684 13.0342 60.5669 10.3654C60.4499 7.69668 59.3407 5.16469 57.4532 3.25519C55.5657 1.34567 53.0323 0.193095 50.3389 0.0185578C50.2264 0.00642974 50.113 0.000234958 49.9995 0C49.9364 0 49.8738 0 49.8107 0C49.7796 0 49.7494 0 49.7192 0C49.689 0 49.6579 0.00361852 49.6277 0.00452377C43.1121 0.0552341 36.6711 1.38182 30.676 3.9078C24.6809 6.43376 19.2504 10.1092 14.6974 14.7221C5.28352 24.0995 0 36.7814 0 50.0002C0 63.2187 5.28352 75.9004 14.6974 85.2779C19.2924 89.9377 24.783 93.6411 30.8458 96.169C36.9086 98.6973 43.4213 100 50.0005 100C56.5796 100 63.092 98.6973 69.1553 96.169C75.2181 93.6411 80.7083 89.9377 85.3035 85.2779L85.3026 85.2802Z"/>
<path fill="white" d="M143.86 81.9146C138.423 81.9146 133.494 80.7459 129.073 78.4085C124.703 76.0202 121.248 72.7427 118.707 68.576C116.218 64.3585 114.973 59.6074 114.973 54.3227C114.973 49.0381 116.218 44.3124 118.707 40.1456C121.248 35.9281 124.703 32.6506 129.073 30.3132C133.494 27.9249 138.449 26.7308 143.937 26.7308C148.561 26.7308 152.727 27.5438 156.437 29.1698C160.197 30.7959 163.347 33.1333 165.888 36.1822L157.961 43.4994C154.353 39.3326 149.882 37.2493 144.546 37.2493C141.243 37.2493 138.296 37.9861 135.705 39.4597C133.113 40.8824 131.081 42.8896 129.607 45.4811C128.184 48.0726 127.473 51.0198 127.473 54.3227C127.473 57.6256 128.184 60.5728 129.607 63.1643C131.081 65.7558 133.113 67.7884 135.705 69.262C138.296 70.6848 141.243 71.3962 144.546 71.3962C149.882 71.3962 154.353 69.2874 157.961 65.0699L165.888 72.387C163.347 75.4867 160.197 77.8495 156.437 79.4756C152.677 81.1016 148.484 81.9146 143.86 81.9146ZM192.63 72.0822C194.764 72.0822 196.644 71.7773 198.27 71.1675C199.947 70.5069 201.497 69.4907 202.92 68.1187L209.246 74.9786C205.384 79.3994 199.744 81.6098 192.325 81.6098C187.701 81.6098 183.61 80.7205 180.053 78.942C176.496 77.1127 173.752 74.5975 171.821 71.3962C169.89 68.1949 168.925 64.5617 168.925 60.4966C168.925 56.4823 169.865 52.8745 171.745 49.6732C173.676 46.4212 176.293 43.9059 179.596 42.1274C182.95 40.2981 186.71 39.3834 190.877 39.3834C194.789 39.3834 198.346 40.2219 201.548 41.8987C204.749 43.5248 207.29 45.913 209.17 49.0635C211.101 52.1631 212.066 55.8471 212.066 60.1155L181.73 65.9845C182.594 68.0171 183.941 69.5415 185.77 70.5577C187.65 71.574 189.937 72.0822 192.63 72.0822ZM190.877 48.3775C187.879 48.3775 185.44 49.343 183.559 51.2739C181.679 53.2048 180.688 55.8725 180.587 59.2771L200.557 55.3898C199.998 53.2556 198.854 51.5534 197.127 50.283C195.399 49.0127 193.316 48.3775 190.877 48.3775ZM234.769 81.6098C230.145 81.6098 226.537 80.3902 223.946 77.9512C221.354 75.4613 220.058 71.9551 220.058 67.4327V24.4442H231.949V66.7467C231.949 68.4744 232.381 69.8209 233.245 70.7864C234.159 71.7011 235.43 72.1584 237.056 72.1584C237.665 72.1584 238.275 72.0822 238.885 71.9297C239.546 71.7773 240.054 71.5994 240.409 71.3962L240.943 80.6189C238.961 81.2795 236.903 81.6098 234.769 81.6098ZM261.491 81.6098C256.867 81.6098 253.259 80.3902 250.668 77.9512C248.076 75.4613 246.78 71.9551 246.78 67.4327V24.4442H258.671V66.7467C258.671 68.4744 259.103 69.8209 259.967 70.7864C260.881 71.7011 262.152 72.1584 263.778 72.1584C264.387 72.1584 264.997 72.0822 265.607 71.9297C266.268 71.7773 266.776 71.5994 267.131 71.3962L267.665 80.6189C265.683 81.2795 263.625 81.6098 261.491 81.6098ZM319.022 27.6454C323.747 27.6454 327.838 28.433 331.293 30.0083C334.799 31.5835 337.493 33.8193 339.373 36.7157C341.253 39.6121 342.193 43.042 342.193 47.0055C342.193 50.9182 341.253 54.3481 339.373 57.2953C337.493 60.1917 334.799 62.4275 331.293 64.0028C327.838 65.5272 323.747 66.2894 319.022 66.2894H308.275V81H295.927V27.6454H319.022ZM318.336 56.2282C322.045 56.2282 324.865 55.4406 326.796 53.8654C328.727 52.2393 329.693 49.9527 329.693 47.0055C329.693 44.0075 328.727 41.7209 326.796 40.1456C324.865 38.5196 322.045 37.7066 318.336 37.7066H308.275V56.2282H318.336ZM369.608 81.6098C365.289 81.6098 361.401 80.7205 357.946 78.942C354.542 77.1127 351.874 74.5975 349.943 71.3962C348.012 68.1949 347.047 64.5617 347.047 60.4966C347.047 56.4315 348.012 52.7983 349.943 49.597C351.874 46.3958 354.542 43.9059 357.946 42.1274C361.401 40.2981 365.289 39.3834 369.608 39.3834C373.927 39.3834 377.789 40.2981 381.193 42.1274C384.598 43.9059 387.266 46.3958 389.197 49.597C391.128 52.7983 392.093 56.4315 392.093 60.4966C392.093 64.5617 391.128 68.1949 389.197 71.3962C387.266 74.5975 384.598 77.1127 381.193 78.942C377.789 80.7205 373.927 81.6098 369.608 81.6098ZM369.608 71.8535C372.657 71.8535 375.147 70.8372 377.078 68.8047C379.059 66.7213 380.05 63.9519 380.05 60.4966C380.05 57.0413 379.059 54.2973 377.078 52.2648C375.147 50.1814 372.657 49.1397 369.608 49.1397C366.559 49.1397 364.044 50.1814 362.062 52.2648C360.08 54.2973 359.089 57.0413 359.089 60.4966C359.089 63.9519 360.08 66.7213 362.062 68.8047C364.044 70.8372 366.559 71.8535 369.608 71.8535ZM464.905 39.9932V62.6308C464.905 68.6776 463.253 73.3525 459.95 76.6554C456.647 79.9583 451.947 81.6098 445.85 81.6098C442.902 81.6098 440.285 81.1524 437.999 80.2378C435.763 79.3231 433.883 77.8495 432.358 75.817C430.834 77.8495 428.954 79.3231 426.718 80.2378C424.482 81.1524 421.84 81.6098 418.791 81.6098C412.643 81.6098 407.942 79.9583 404.69 76.6554C401.438 73.3525 399.812 68.6776 399.812 62.6308V39.9932H411.703V61.7161C411.703 65.1207 412.287 67.636 413.456 69.262C414.624 70.8372 416.454 71.6248 418.944 71.6248C421.484 71.6248 423.364 70.8118 424.584 69.1858C425.803 67.5597 426.413 65.0698 426.413 61.7161V39.9932H438.304V61.7161C438.304 65.0698 438.913 67.5597 440.133 69.1858C441.352 70.8118 443.233 71.6248 445.773 71.6248C448.263 71.6248 450.092 70.8372 451.261 69.262C452.43 67.636 453.014 65.1207 453.014 61.7161V39.9932H464.905ZM496.248 72.0822C498.382 72.0822 500.262 71.7773 501.888 71.1675C503.565 70.5069 505.115 69.4907 506.537 68.1187L512.864 74.9786C509.002 79.3994 503.362 81.6098 495.943 81.6098C491.319 81.6098 487.228 80.7205 483.671 78.942C480.114 77.1127 477.37 74.5975 475.439 71.3962C473.508 68.1949 472.543 64.5617 472.543 60.4966C472.543 56.4823 473.483 52.8745 475.363 49.6732C477.294 46.4212 479.911 43.9059 483.214 42.1274C486.568 40.2981 490.328 39.3834 494.494 39.3834C498.407 39.3834 501.964 40.2219 505.165 41.8987C508.367 43.5248 510.907 45.913 512.787 49.0635C514.718 52.1631 515.684 55.8471 515.684 60.1155L485.348 65.9845C486.212 68.0171 487.558 69.5415 489.388 70.5577C491.268 71.574 493.554 72.0822 496.248 72.0822ZM494.494 48.3775C491.496 48.3775 489.057 49.343 487.177 51.2739C485.297 53.2048 484.306 55.8725 484.205 59.2771L504.175 55.3898C503.616 53.2556 502.472 51.5534 500.745 50.283C499.017 49.0127 496.934 48.3775 494.494 48.3775ZM535.033 45.4049C536.456 43.4231 538.362 41.9241 540.75 40.9079C543.189 39.8916 545.984 39.3834 549.134 39.3834V50.3592C547.813 50.2576 546.924 50.2068 546.466 50.2068C543.062 50.2068 540.394 51.1723 538.463 53.1032C536.532 54.9833 535.567 57.8289 535.567 61.6399V81H523.676V39.9932H535.033V45.4049Z"/>
</svg>